<svg width="18" height="19" viewBox="0 0 18 19" fill="none" xmlns="http://www.w3.org/2000/svg">
<path fill-rule="evenodd" clip-rule="evenodd" d="M2 0.5H16C17.1046 0.5 18 1.39543 18 2.5V16.5C18 17.6046 17.1046 18.5 16 18.5H2C0.89543 18.5 0 17.6046 0 16.5V2.5C0 1.39543 0.89543 0.5 2 0.5ZM5 15.5C5.27614 15.5 5.5 15.2761 5.5 15V8C5.5 7.7239 5.27614 7.5 5 7.5H3.5C3.22386 7.5 3 7.7239 3 8V15C3 15.2761 3.22386 15.5 3.5 15.5H5ZM4.25 6.5C3.42157 6.5 2.75 5.82843 2.75 5C2.75 4.17157 3.42157 3.5 4.25 3.5C5.07843 3.5 5.75 4.17157 5.75 5C5.75 5.82843 5.07843 6.5 4.25 6.5ZM14.5 15.5C14.7761 15.5 15 15.2761 15 15V10.4C15.0325 8.8108 13.8576 7.45452 12.28 7.26C11.177 7.15925 10.1083 7.6744 9.5 8.6V8C9.5 7.7239 9.2761 7.5 9 7.5H7.5C7.2239 7.5 7 7.7239 7 8V15C7 15.2761 7.2239 15.5 7.5 15.5H9C9.2761 15.5 9.5 15.2761 9.5 15V11.25C9.5 10.4216 10.1716 9.75 11 9.75C11.8284 9.75 12.5 10.4216 12.5 11.25V15C12.5 15.2761 12.7239 15.5 13 15.5H14.5Z" fill="#111111"/>
</svg>
