<svg width="18" height="16" viewBox="0 0 18 16" fill="none" xmlns="http://www.w3.org/2000/svg">
<path d="M17.9728 2.2174C17.5084 2.83692 16.947 3.37733 16.3103 3.81776C16.3103 3.97959 16.3103 4.14142 16.3103 4.31225C16.3154 7.2511 15.1415 10.0691 13.0518 12.1345C10.962 14.1999 8.1312 15.3399 5.19405 15.2989C3.49599 15.3046 1.81967 14.9169 0.296422 14.1661C0.214282 14.1302 0.161312 14.049 0.161622 13.9593V13.8604C0.161622 13.7313 0.266232 13.6267 0.395272 13.6267C2.06442 13.5716 3.67402 12.9929 4.99634 11.9724C3.48553 11.9419 2.12619 11.0469 1.5006 9.6707C1.46901 9.5956 1.47884 9.5093 1.52657 9.4432C1.57429 9.3771 1.653 9.3407 1.73425 9.3471C2.19342 9.3932 2.65718 9.3505 3.1002 9.2212C1.43239 8.875 0.179212 7.4904 -0.000137933 5.7957C-0.00650793 5.7144 0.029922 5.6357 0.096002 5.5879C0.162072 5.5402 0.248242 5.5303 0.323382 5.562C0.770942 5.7595 1.25409 5.8635 1.74324 5.8676C0.281842 4.90846 -0.349388 3.08405 0.206552 1.42622C0.263942 1.26513 0.401812 1.14612 0.569502 1.11294C0.737182 1.07975 0.909962 1.13728 1.02432 1.26439C2.99639 3.36325 5.70604 4.61396 8.5819 4.75279C8.5083 4.45885 8.4721 4.15676 8.4741 3.85372C8.501 2.26472 9.4842 0.849212 10.9634 0.269872C12.4425 -0.309458 14.1249 0.0620322 15.223 1.21044C15.9714 1.06785 16.695 0.816452 17.3707 0.464212C17.4202 0.433312 17.483 0.433312 17.5325 0.464212C17.5634 0.513732 17.5634 0.576522 17.5325 0.626042C17.2052 1.37552 16.6523 2.00412 15.9509 2.42419C16.5651 2.35296 17.1685 2.20807 17.7482 1.99264C17.797 1.95942 17.8611 1.95942 17.9099 1.99264C17.9508 2.01134 17.9814 2.04711 17.9935 2.09042C18.0056 2.13373 17.998 2.18018 17.9728 2.2174Z" fill="#111111"/>
</svg>
